<mxfile host="app.diagrams.net" modified="2024-02-05T11:25:56.766Z" agent="Mozilla/5.0 (Windows NT 10.0; Win64; x64) AppleWebKit/537.36 (KHTML, like Gecko) Chrome/121.0.0.0 Safari/537.36" etag="UovBuUNarNAhOQFugslY" version="23.1.1" type="device">
  <diagram name="Strona-1" id="20eOa7U6SrlqpPrcbesb">
    <mxGraphModel dx="1235" dy="1793" grid="1" gridSize="10" guides="1" tooltips="1" connect="1" arrows="1" fold="1" page="1" pageScale="1" pageWidth="827" pageHeight="1169" math="0" shadow="0">
      <root>
        <mxCell id="0" />
        <mxCell id="1" parent="0" />
        <mxCell id="BMoPnwDoKJeu-NjSaYt7-23" value="" style="group;labelBackgroundColor=none;" vertex="1" connectable="0" parent="1">
          <mxGeometry x="70" y="60" width="140" height="360" as="geometry" />
        </mxCell>
        <mxCell id="BMoPnwDoKJeu-NjSaYt7-21" value="+congratulate()" style="rounded=0;whiteSpace=wrap;html=1;labelBackgroundColor=none;align=left;" vertex="1" parent="BMoPnwDoKJeu-NjSaYt7-23">
          <mxGeometry y="330" width="140" height="30" as="geometry" />
        </mxCell>
        <mxCell id="BMoPnwDoKJeu-NjSaYt7-22" value="" style="group;labelBackgroundColor=none;" vertex="1" connectable="0" parent="BMoPnwDoKJeu-NjSaYt7-23">
          <mxGeometry width="140" height="330" as="geometry" />
        </mxCell>
        <mxCell id="BMoPnwDoKJeu-NjSaYt7-17" value="" style="group;labelBackgroundColor=none;" vertex="1" connectable="0" parent="BMoPnwDoKJeu-NjSaYt7-22">
          <mxGeometry width="140" height="270" as="geometry" />
        </mxCell>
        <mxCell id="BMoPnwDoKJeu-NjSaYt7-2" value="AdressBook" style="swimlane;fontStyle=0;childLayout=stackLayout;horizontal=1;startSize=30;horizontalStack=0;resizeParent=1;resizeParentMax=0;resizeLast=0;collapsible=1;marginBottom=0;whiteSpace=wrap;html=1;flipH=0;labelBackgroundColor=none;" vertex="1" parent="BMoPnwDoKJeu-NjSaYt7-17">
          <mxGeometry width="140" height="120" as="geometry">
            <mxRectangle x="340" y="220" width="110" height="30" as="alternateBounds" />
          </mxGeometry>
        </mxCell>
        <mxCell id="BMoPnwDoKJeu-NjSaYt7-3" value="+seld.data" style="text;strokeColor=none;fillColor=none;align=left;verticalAlign=middle;spacingLeft=4;spacingRight=4;overflow=hidden;points=[[0,0.5],[1,0.5]];portConstraint=eastwest;rotatable=0;whiteSpace=wrap;html=1;labelBackgroundColor=none;" vertex="1" parent="BMoPnwDoKJeu-NjSaYt7-2">
          <mxGeometry y="30" width="140" height="30" as="geometry" />
        </mxCell>
        <mxCell id="BMoPnwDoKJeu-NjSaYt7-4" value="+self.counter" style="text;strokeColor=none;fillColor=none;align=left;verticalAlign=middle;spacingLeft=4;spacingRight=4;overflow=hidden;points=[[0,0.5],[1,0.5]];portConstraint=eastwest;rotatable=0;whiteSpace=wrap;html=1;labelBackgroundColor=none;" vertex="1" parent="BMoPnwDoKJeu-NjSaYt7-2">
          <mxGeometry y="60" width="140" height="30" as="geometry" />
        </mxCell>
        <mxCell id="BMoPnwDoKJeu-NjSaYt7-5" value="+log()" style="text;strokeColor=none;fillColor=none;align=left;verticalAlign=middle;spacingLeft=4;spacingRight=4;overflow=hidden;points=[[0,0.5],[1,0.5]];portConstraint=eastwest;rotatable=0;whiteSpace=wrap;html=1;labelBackgroundColor=none;" vertex="1" parent="BMoPnwDoKJeu-NjSaYt7-2">
          <mxGeometry y="90" width="140" height="30" as="geometry" />
        </mxCell>
        <mxCell id="BMoPnwDoKJeu-NjSaYt7-7" value="+add()" style="rounded=0;whiteSpace=wrap;html=1;labelBackgroundColor=none;align=left;" vertex="1" parent="BMoPnwDoKJeu-NjSaYt7-17">
          <mxGeometry y="120" width="140" height="30" as="geometry" />
        </mxCell>
        <mxCell id="BMoPnwDoKJeu-NjSaYt7-13" value="+save()" style="rounded=0;whiteSpace=wrap;html=1;labelBackgroundColor=none;align=left;" vertex="1" parent="BMoPnwDoKJeu-NjSaYt7-17">
          <mxGeometry y="150" width="140" height="30" as="geometry" />
        </mxCell>
        <mxCell id="BMoPnwDoKJeu-NjSaYt7-14" value="&lt;div style=&quot;&quot;&gt;&lt;span style=&quot;background-color: initial;&quot;&gt;+load()&lt;/span&gt;&lt;/div&gt;" style="rounded=0;whiteSpace=wrap;html=1;labelBackgroundColor=none;align=left;" vertex="1" parent="BMoPnwDoKJeu-NjSaYt7-17">
          <mxGeometry y="180" width="140" height="30" as="geometry" />
        </mxCell>
        <mxCell id="BMoPnwDoKJeu-NjSaYt7-15" value="+search()" style="rounded=0;whiteSpace=wrap;html=1;labelBackgroundColor=none;align=left;" vertex="1" parent="BMoPnwDoKJeu-NjSaYt7-17">
          <mxGeometry y="210" width="140" height="30" as="geometry" />
        </mxCell>
        <mxCell id="BMoPnwDoKJeu-NjSaYt7-16" value="+edit()" style="rounded=0;whiteSpace=wrap;html=1;labelBackgroundColor=none;align=left;" vertex="1" parent="BMoPnwDoKJeu-NjSaYt7-17">
          <mxGeometry y="240" width="140" height="30" as="geometry" />
        </mxCell>
        <mxCell id="BMoPnwDoKJeu-NjSaYt7-18" value="+remove()" style="rounded=0;whiteSpace=wrap;html=1;labelBackgroundColor=none;align=left;" vertex="1" parent="BMoPnwDoKJeu-NjSaYt7-22">
          <mxGeometry y="270" width="140" height="30" as="geometry" />
        </mxCell>
        <mxCell id="BMoPnwDoKJeu-NjSaYt7-19" value="-get_current_week()" style="rounded=0;whiteSpace=wrap;html=1;labelBackgroundColor=none;align=left;" vertex="1" parent="BMoPnwDoKJeu-NjSaYt7-22">
          <mxGeometry y="300" width="140" height="30" as="geometry" />
        </mxCell>
        <mxCell id="BMoPnwDoKJeu-NjSaYt7-37" value="UserDict" style="swimlane;fontStyle=0;childLayout=stackLayout;horizontal=1;startSize=30;horizontalStack=0;resizeParent=1;resizeParentMax=0;resizeLast=0;collapsible=1;marginBottom=0;whiteSpace=wrap;html=1;labelBackgroundColor=none;" vertex="1" parent="1">
          <mxGeometry x="270" y="-90" width="140" height="60" as="geometry" />
        </mxCell>
        <mxCell id="BMoPnwDoKJeu-NjSaYt7-44" value="" style="endArrow=none;html=1;rounded=0;exitX=0.5;exitY=0;exitDx=0;exitDy=0;" edge="1" parent="1" source="BMoPnwDoKJeu-NjSaYt7-2">
          <mxGeometry width="50" height="50" relative="1" as="geometry">
            <mxPoint x="240" y="170" as="sourcePoint" />
            <mxPoint x="140" as="targetPoint" />
            <Array as="points" />
          </mxGeometry>
        </mxCell>
        <mxCell id="BMoPnwDoKJeu-NjSaYt7-45" value="" style="endArrow=none;html=1;rounded=0;" edge="1" parent="1">
          <mxGeometry width="50" height="50" relative="1" as="geometry">
            <mxPoint x="140" as="sourcePoint" />
            <mxPoint x="340" as="targetPoint" />
          </mxGeometry>
        </mxCell>
        <mxCell id="BMoPnwDoKJeu-NjSaYt7-46" value="" style="endArrow=classic;html=1;rounded=0;entryX=0.5;entryY=1;entryDx=0;entryDy=0;" edge="1" parent="1" target="BMoPnwDoKJeu-NjSaYt7-37">
          <mxGeometry width="50" height="50" relative="1" as="geometry">
            <mxPoint x="340" as="sourcePoint" />
            <mxPoint x="290" y="120" as="targetPoint" />
          </mxGeometry>
        </mxCell>
        <mxCell id="BMoPnwDoKJeu-NjSaYt7-71" value="" style="edgeStyle=orthogonalEdgeStyle;rounded=0;orthogonalLoop=1;jettySize=auto;html=1;" edge="1" parent="1" source="BMoPnwDoKJeu-NjSaYt7-62" target="BMoPnwDoKJeu-NjSaYt7-70">
          <mxGeometry relative="1" as="geometry" />
        </mxCell>
        <mxCell id="BMoPnwDoKJeu-NjSaYt7-62" value="Field" style="swimlane;fontStyle=0;childLayout=stackLayout;horizontal=1;startSize=30;horizontalStack=0;resizeParent=1;resizeParentMax=0;resizeLast=0;collapsible=1;marginBottom=0;whiteSpace=wrap;html=1;" vertex="1" parent="1">
          <mxGeometry x="590" y="60" width="140" height="60" as="geometry" />
        </mxCell>
        <mxCell id="BMoPnwDoKJeu-NjSaYt7-63" value="getitem()" style="text;strokeColor=none;fillColor=none;align=left;verticalAlign=middle;spacingLeft=4;spacingRight=4;overflow=hidden;points=[[0,0.5],[1,0.5]];portConstraint=eastwest;rotatable=0;whiteSpace=wrap;html=1;" vertex="1" parent="BMoPnwDoKJeu-NjSaYt7-62">
          <mxGeometry y="30" width="140" height="30" as="geometry" />
        </mxCell>
        <mxCell id="BMoPnwDoKJeu-NjSaYt7-92" value="" style="whiteSpace=wrap;html=1;fontStyle=0;startSize=30;" vertex="1" parent="BMoPnwDoKJeu-NjSaYt7-62">
          <mxGeometry y="60" width="140" as="geometry" />
        </mxCell>
        <mxCell id="BMoPnwDoKJeu-NjSaYt7-66" value="ABC" style="swimlane;fontStyle=0;childLayout=stackLayout;horizontal=1;startSize=30;horizontalStack=0;resizeParent=1;resizeParentMax=0;resizeLast=0;collapsible=1;marginBottom=0;whiteSpace=wrap;html=1;" vertex="1" parent="1">
          <mxGeometry x="500" y="-90" width="140" height="60" as="geometry" />
        </mxCell>
        <mxCell id="BMoPnwDoKJeu-NjSaYt7-70" value="" style="whiteSpace=wrap;html=1;fontStyle=0;startSize=30;" vertex="1" parent="BMoPnwDoKJeu-NjSaYt7-66">
          <mxGeometry y="30" width="140" height="30" as="geometry" />
        </mxCell>
        <mxCell id="BMoPnwDoKJeu-NjSaYt7-72" value="Name" style="swimlane;fontStyle=0;childLayout=stackLayout;horizontal=1;startSize=30;horizontalStack=0;resizeParent=1;resizeParentMax=0;resizeLast=0;collapsible=1;marginBottom=0;whiteSpace=wrap;html=1;" vertex="1" parent="1">
          <mxGeometry x="310" y="190" width="140" height="90" as="geometry" />
        </mxCell>
        <mxCell id="BMoPnwDoKJeu-NjSaYt7-73" value="self.value" style="text;strokeColor=none;fillColor=none;align=left;verticalAlign=middle;spacingLeft=4;spacingRight=4;overflow=hidden;points=[[0,0.5],[1,0.5]];portConstraint=eastwest;rotatable=0;whiteSpace=wrap;html=1;" vertex="1" parent="BMoPnwDoKJeu-NjSaYt7-72">
          <mxGeometry y="30" width="140" height="30" as="geometry" />
        </mxCell>
        <mxCell id="BMoPnwDoKJeu-NjSaYt7-74" value="getitem()" style="text;strokeColor=none;fillColor=none;align=left;verticalAlign=middle;spacingLeft=4;spacingRight=4;overflow=hidden;points=[[0,0.5],[1,0.5]];portConstraint=eastwest;rotatable=0;whiteSpace=wrap;html=1;" vertex="1" parent="BMoPnwDoKJeu-NjSaYt7-72">
          <mxGeometry y="60" width="140" height="30" as="geometry" />
        </mxCell>
        <mxCell id="BMoPnwDoKJeu-NjSaYt7-76" value="Phone" style="swimlane;fontStyle=0;childLayout=stackLayout;horizontal=1;startSize=30;horizontalStack=0;resizeParent=1;resizeParentMax=0;resizeLast=0;collapsible=1;marginBottom=0;whiteSpace=wrap;html=1;" vertex="1" parent="1">
          <mxGeometry x="500" y="190" width="140" height="90" as="geometry" />
        </mxCell>
        <mxCell id="BMoPnwDoKJeu-NjSaYt7-77" value="self.value" style="text;strokeColor=none;fillColor=none;align=left;verticalAlign=middle;spacingLeft=4;spacingRight=4;overflow=hidden;points=[[0,0.5],[1,0.5]];portConstraint=eastwest;rotatable=0;whiteSpace=wrap;html=1;" vertex="1" parent="BMoPnwDoKJeu-NjSaYt7-76">
          <mxGeometry y="30" width="140" height="30" as="geometry" />
        </mxCell>
        <mxCell id="BMoPnwDoKJeu-NjSaYt7-78" value="getitem()" style="text;strokeColor=none;fillColor=none;align=left;verticalAlign=middle;spacingLeft=4;spacingRight=4;overflow=hidden;points=[[0,0.5],[1,0.5]];portConstraint=eastwest;rotatable=0;whiteSpace=wrap;html=1;" vertex="1" parent="BMoPnwDoKJeu-NjSaYt7-76">
          <mxGeometry y="60" width="140" height="30" as="geometry" />
        </mxCell>
        <mxCell id="BMoPnwDoKJeu-NjSaYt7-80" value="Birthday" style="swimlane;fontStyle=0;childLayout=stackLayout;horizontal=1;startSize=30;horizontalStack=0;resizeParent=1;resizeParentMax=0;resizeLast=0;collapsible=1;marginBottom=0;whiteSpace=wrap;html=1;" vertex="1" parent="1">
          <mxGeometry x="670" y="190" width="140" height="90" as="geometry" />
        </mxCell>
        <mxCell id="BMoPnwDoKJeu-NjSaYt7-81" value="self.value" style="text;strokeColor=none;fillColor=none;align=left;verticalAlign=middle;spacingLeft=4;spacingRight=4;overflow=hidden;points=[[0,0.5],[1,0.5]];portConstraint=eastwest;rotatable=0;whiteSpace=wrap;html=1;" vertex="1" parent="BMoPnwDoKJeu-NjSaYt7-80">
          <mxGeometry y="30" width="140" height="30" as="geometry" />
        </mxCell>
        <mxCell id="BMoPnwDoKJeu-NjSaYt7-82" value="getitem()" style="text;strokeColor=none;fillColor=none;align=left;verticalAlign=middle;spacingLeft=4;spacingRight=4;overflow=hidden;points=[[0,0.5],[1,0.5]];portConstraint=eastwest;rotatable=0;whiteSpace=wrap;html=1;" vertex="1" parent="BMoPnwDoKJeu-NjSaYt7-80">
          <mxGeometry y="60" width="140" height="30" as="geometry" />
        </mxCell>
        <mxCell id="BMoPnwDoKJeu-NjSaYt7-83" value="Email" style="swimlane;fontStyle=0;childLayout=stackLayout;horizontal=1;startSize=30;horizontalStack=0;resizeParent=1;resizeParentMax=0;resizeLast=0;collapsible=1;marginBottom=0;whiteSpace=wrap;html=1;" vertex="1" parent="1">
          <mxGeometry x="850" y="190" width="140" height="90" as="geometry" />
        </mxCell>
        <mxCell id="BMoPnwDoKJeu-NjSaYt7-84" value="self.value" style="text;strokeColor=none;fillColor=none;align=left;verticalAlign=middle;spacingLeft=4;spacingRight=4;overflow=hidden;points=[[0,0.5],[1,0.5]];portConstraint=eastwest;rotatable=0;whiteSpace=wrap;html=1;" vertex="1" parent="BMoPnwDoKJeu-NjSaYt7-83">
          <mxGeometry y="30" width="140" height="30" as="geometry" />
        </mxCell>
        <mxCell id="BMoPnwDoKJeu-NjSaYt7-85" value="getitem()" style="text;strokeColor=none;fillColor=none;align=left;verticalAlign=middle;spacingLeft=4;spacingRight=4;overflow=hidden;points=[[0,0.5],[1,0.5]];portConstraint=eastwest;rotatable=0;whiteSpace=wrap;html=1;" vertex="1" parent="BMoPnwDoKJeu-NjSaYt7-83">
          <mxGeometry y="60" width="140" height="30" as="geometry" />
        </mxCell>
        <mxCell id="BMoPnwDoKJeu-NjSaYt7-86" value="Status" style="swimlane;fontStyle=0;childLayout=stackLayout;horizontal=1;startSize=30;horizontalStack=0;resizeParent=1;resizeParentMax=0;resizeLast=0;collapsible=1;marginBottom=0;whiteSpace=wrap;html=1;" vertex="1" parent="1">
          <mxGeometry x="1040" y="190" width="140" height="90" as="geometry" />
        </mxCell>
        <mxCell id="BMoPnwDoKJeu-NjSaYt7-87" value="self.value" style="text;strokeColor=none;fillColor=none;align=left;verticalAlign=middle;spacingLeft=4;spacingRight=4;overflow=hidden;points=[[0,0.5],[1,0.5]];portConstraint=eastwest;rotatable=0;whiteSpace=wrap;html=1;" vertex="1" parent="BMoPnwDoKJeu-NjSaYt7-86">
          <mxGeometry y="30" width="140" height="30" as="geometry" />
        </mxCell>
        <mxCell id="BMoPnwDoKJeu-NjSaYt7-88" value="getitem()" style="text;strokeColor=none;fillColor=none;align=left;verticalAlign=middle;spacingLeft=4;spacingRight=4;overflow=hidden;points=[[0,0.5],[1,0.5]];portConstraint=eastwest;rotatable=0;whiteSpace=wrap;html=1;" vertex="1" parent="BMoPnwDoKJeu-NjSaYt7-86">
          <mxGeometry y="60" width="140" height="30" as="geometry" />
        </mxCell>
        <mxCell id="BMoPnwDoKJeu-NjSaYt7-89" value="Note" style="swimlane;fontStyle=0;childLayout=stackLayout;horizontal=1;startSize=30;horizontalStack=0;resizeParent=1;resizeParentMax=0;resizeLast=0;collapsible=1;marginBottom=0;whiteSpace=wrap;html=1;" vertex="1" parent="1">
          <mxGeometry x="1200" y="190" width="140" height="90" as="geometry" />
        </mxCell>
        <mxCell id="BMoPnwDoKJeu-NjSaYt7-90" value="self.value" style="text;strokeColor=none;fillColor=none;align=left;verticalAlign=middle;spacingLeft=4;spacingRight=4;overflow=hidden;points=[[0,0.5],[1,0.5]];portConstraint=eastwest;rotatable=0;whiteSpace=wrap;html=1;" vertex="1" parent="BMoPnwDoKJeu-NjSaYt7-89">
          <mxGeometry y="30" width="140" height="30" as="geometry" />
        </mxCell>
        <mxCell id="BMoPnwDoKJeu-NjSaYt7-91" value="getitem()" style="text;strokeColor=none;fillColor=none;align=left;verticalAlign=middle;spacingLeft=4;spacingRight=4;overflow=hidden;points=[[0,0.5],[1,0.5]];portConstraint=eastwest;rotatable=0;whiteSpace=wrap;html=1;" vertex="1" parent="BMoPnwDoKJeu-NjSaYt7-89">
          <mxGeometry y="60" width="140" height="30" as="geometry" />
        </mxCell>
        <mxCell id="BMoPnwDoKJeu-NjSaYt7-98" value="" style="endArrow=classic;html=1;rounded=0;entryX=0;entryY=0;entryDx=0;entryDy=0;" edge="1" parent="1" target="BMoPnwDoKJeu-NjSaYt7-92">
          <mxGeometry width="50" height="50" relative="1" as="geometry">
            <mxPoint x="660" y="160" as="sourcePoint" />
            <mxPoint x="840" y="220" as="targetPoint" />
          </mxGeometry>
        </mxCell>
        <mxCell id="BMoPnwDoKJeu-NjSaYt7-99" value="" style="endArrow=none;html=1;rounded=0;exitX=0.5;exitY=0;exitDx=0;exitDy=0;" edge="1" parent="1" source="BMoPnwDoKJeu-NjSaYt7-72">
          <mxGeometry width="50" height="50" relative="1" as="geometry">
            <mxPoint x="790" y="270" as="sourcePoint" />
            <mxPoint x="660" y="160" as="targetPoint" />
            <Array as="points">
              <mxPoint x="380" y="160" />
            </Array>
          </mxGeometry>
        </mxCell>
        <mxCell id="BMoPnwDoKJeu-NjSaYt7-100" value="" style="endArrow=none;html=1;rounded=0;exitX=0.5;exitY=0;exitDx=0;exitDy=0;" edge="1" parent="1" source="BMoPnwDoKJeu-NjSaYt7-76">
          <mxGeometry width="50" height="50" relative="1" as="geometry">
            <mxPoint x="790" y="270" as="sourcePoint" />
            <mxPoint x="660" y="160" as="targetPoint" />
            <Array as="points">
              <mxPoint x="570" y="160" />
            </Array>
          </mxGeometry>
        </mxCell>
        <mxCell id="BMoPnwDoKJeu-NjSaYt7-101" value="" style="endArrow=none;html=1;rounded=0;exitX=0.5;exitY=0;exitDx=0;exitDy=0;" edge="1" parent="1" source="BMoPnwDoKJeu-NjSaYt7-80">
          <mxGeometry width="50" height="50" relative="1" as="geometry">
            <mxPoint x="790" y="270" as="sourcePoint" />
            <mxPoint x="660" y="160" as="targetPoint" />
            <Array as="points">
              <mxPoint x="740" y="160" />
            </Array>
          </mxGeometry>
        </mxCell>
        <mxCell id="BMoPnwDoKJeu-NjSaYt7-102" value="" style="endArrow=none;html=1;rounded=0;entryX=0.5;entryY=0;entryDx=0;entryDy=0;" edge="1" parent="1" target="BMoPnwDoKJeu-NjSaYt7-83">
          <mxGeometry width="50" height="50" relative="1" as="geometry">
            <mxPoint x="660" y="160" as="sourcePoint" />
            <mxPoint x="840" y="220" as="targetPoint" />
            <Array as="points">
              <mxPoint x="920" y="160" />
            </Array>
          </mxGeometry>
        </mxCell>
        <mxCell id="BMoPnwDoKJeu-NjSaYt7-103" value="" style="endArrow=none;html=1;rounded=0;exitX=0.5;exitY=0;exitDx=0;exitDy=0;" edge="1" parent="1" source="BMoPnwDoKJeu-NjSaYt7-86">
          <mxGeometry width="50" height="50" relative="1" as="geometry">
            <mxPoint x="790" y="270" as="sourcePoint" />
            <mxPoint x="660" y="160" as="targetPoint" />
            <Array as="points">
              <mxPoint x="1110" y="160" />
            </Array>
          </mxGeometry>
        </mxCell>
        <mxCell id="BMoPnwDoKJeu-NjSaYt7-104" value="" style="endArrow=none;html=1;rounded=0;exitX=0.5;exitY=0;exitDx=0;exitDy=0;" edge="1" parent="1" source="BMoPnwDoKJeu-NjSaYt7-89">
          <mxGeometry width="50" height="50" relative="1" as="geometry">
            <mxPoint x="790" y="270" as="sourcePoint" />
            <mxPoint x="1110" y="160" as="targetPoint" />
            <Array as="points">
              <mxPoint x="1270" y="160" />
            </Array>
          </mxGeometry>
        </mxCell>
        <mxCell id="BMoPnwDoKJeu-NjSaYt7-121" value="Bot" style="swimlane;fontStyle=0;childLayout=stackLayout;horizontal=1;startSize=30;horizontalStack=0;resizeParent=1;resizeParentMax=0;resizeLast=0;collapsible=1;marginBottom=0;whiteSpace=wrap;html=1;" vertex="1" parent="1">
          <mxGeometry x="830" y="-90" width="140" height="90" as="geometry" />
        </mxCell>
        <mxCell id="BMoPnwDoKJeu-NjSaYt7-122" value="+self.book" style="text;strokeColor=none;fillColor=none;align=left;verticalAlign=middle;spacingLeft=4;spacingRight=4;overflow=hidden;points=[[0,0.5],[1,0.5]];portConstraint=eastwest;rotatable=0;whiteSpace=wrap;html=1;" vertex="1" parent="BMoPnwDoKJeu-NjSaYt7-121">
          <mxGeometry y="30" width="140" height="30" as="geometry" />
        </mxCell>
        <mxCell id="BMoPnwDoKJeu-NjSaYt7-123" value="+handle()" style="text;strokeColor=none;fillColor=none;align=left;verticalAlign=middle;spacingLeft=4;spacingRight=4;overflow=hidden;points=[[0,0.5],[1,0.5]];portConstraint=eastwest;rotatable=0;whiteSpace=wrap;html=1;" vertex="1" parent="BMoPnwDoKJeu-NjSaYt7-121">
          <mxGeometry y="60" width="140" height="30" as="geometry" />
        </mxCell>
      </root>
    </mxGraphModel>
  </diagram>
</mxfile>
